<svg xmlns="http://www.w3.org/2000/svg" width="256" height="256" viewBox="0 0 256 256"><title>Robotic card dealing</title><defs><linearGradient id="edge" x1="0" y1="0" x2="0.8" y2="1"><stop stop-color="#CFDDEB"/><stop offset=".48" stop-color="#A9BBD0"/><stop offset="1" stop-color="#879FB9"/></linearGradient><linearGradient id="surface-17263F" x1="0" y1="0" x2=".65" y2="1"><stop stop-color="#414d62"/><stop offset=".42" stop-color="#17263F"/><stop offset="1" stop-color="#142036"/></linearGradient><linearGradient id="surface-A9BBD0" x1="0" y1="0" x2=".65" y2="1"><stop stop-color="#b8c7d8"/><stop offset=".42" stop-color="#A9BBD0"/><stop offset="1" stop-color="#909fb1"/></linearGradient><linearGradient id="surface-D0DFEF" x1="0" y1="0" x2=".65" y2="1"><stop stop-color="#d8e5f2"/><stop offset=".42" stop-color="#D0DFEF"/><stop offset="1" stop-color="#b1becb"/></linearGradient><linearGradient id="surface-526987" x1="0" y1="0" x2=".65" y2="1"><stop stop-color="#71849d"/><stop offset=".42" stop-color="#526987"/><stop offset="1" stop-color="#465973"/></linearGradient><linearGradient id="surface-4C80D6" x1="0" y1="0" x2=".65" y2="1"><stop stop-color="#6c97dd"/><stop offset=".42" stop-color="#4C80D6"/><stop offset="1" stop-color="#416db6"/></linearGradient><linearGradient id="surface-3664AF" x1="0" y1="0" x2=".65" y2="1"><stop stop-color="#5a80bd"/><stop offset=".42" stop-color="#3664AF"/><stop offset="1" stop-color="#2e5595"/></linearGradient><linearGradient id="surface-328F96" x1="0" y1="0" x2=".65" y2="1"><stop stop-color="#57a3a9"/><stop offset=".42" stop-color="#328F96"/><stop offset="1" stop-color="#2b7a80"/></linearGradient><linearGradient id="surface-8D68C5" x1="0" y1="0" x2=".65" y2="1"><stop stop-color="#a283cf"/><stop offset=".42" stop-color="#8D68C5"/><stop offset="1" stop-color="#7858a7"/></linearGradient><linearGradient id="surface-BE5587" x1="0" y1="0" x2=".65" y2="1"><stop stop-color="#ca749d"/><stop offset=".42" stop-color="#BE5587"/><stop offset="1" stop-color="#a24873"/></linearGradient><linearGradient id="surface-80C6B5" x1="0" y1="0" x2=".65" y2="1"><stop stop-color="#97d0c2"/><stop offset=".42" stop-color="#80C6B5"/><stop offset="1" stop-color="#6da89a"/></linearGradient></defs><path d="M117 178H139Q149 178 149 188V216Q149 226 139 226H117Q107 226 107 216V188Q107 178 117 178Z" fill="url(#surface-526987)" stroke="url(#edge)" stroke-width="17" stroke-linejoin="round"/><path d="M117 178H139Q149 178 149 188V216Q149 226 139 226H117Q107 226 107 216V188Q107 178 117 178Z" fill="url(#surface-526987)" stroke="#17263F" stroke-width="10" stroke-linejoin="round"/><path d="M93 31H163Q175 31 175 43V143Q175 155 163 155H93Q81 155 81 143V43Q81 31 93 31Z" fill="url(#surface-8D68C5)" stroke="url(#edge)" stroke-width="17" stroke-linejoin="round"/><path d="M93 31H163Q175 31 175 43V143Q175 155 163 155H93Q81 155 81 143V43Q81 31 93 31Z" fill="url(#surface-8D68C5)" stroke="#17263F" stroke-width="10" stroke-linejoin="round"/><path d="M128 63L154 94L128 125L102 94Z" fill="#D0DFEF"/><path d="M95 191L67 170V126L83 110L96 123V156H160V123L173 110L189 126V170L161 191Z" fill="url(#surface-328F96)" stroke="url(#edge)" stroke-width="17" stroke-linejoin="round"/><path d="M95 191L67 170V126L83 110L96 123V156H160V123L173 110L189 126V170L161 191Z" fill="url(#surface-328F96)" stroke="#17263F" stroke-width="10" stroke-linejoin="round"/><circle cx="128" cy="174" r="7" fill="#80C6B5"/><g opacity=".35"><path d="M79 145V164L101 180" fill="none" stroke="#D0DFEF" stroke-width="3.5" stroke-linecap="round" stroke-linejoin="round"/></g></svg>
