<svg xmlns="http://www.w3.org/2000/svg" width="256" height="256" viewBox="0 0 256 256"><title>Precision typography</title><defs><linearGradient id="edge" x1="0" y1="0" x2="0.8" y2="1"><stop stop-color="#CFDDEB"/><stop offset=".48" stop-color="#A9BBD0"/><stop offset="1" stop-color="#879FB9"/></linearGradient><linearGradient id="surface-17263F" x1="0" y1="0" x2=".65" y2="1"><stop stop-color="#414d62"/><stop offset=".42" stop-color="#17263F"/><stop offset="1" stop-color="#142036"/></linearGradient><linearGradient id="surface-A9BBD0" x1="0" y1="0" x2=".65" y2="1"><stop stop-color="#b8c7d8"/><stop offset=".42" stop-color="#A9BBD0"/><stop offset="1" stop-color="#909fb1"/></linearGradient><linearGradient id="surface-D0DFEF" x1="0" y1="0" x2=".65" y2="1"><stop stop-color="#d8e5f2"/><stop offset=".42" stop-color="#D0DFEF"/><stop offset="1" stop-color="#b1becb"/></linearGradient><linearGradient id="surface-526987" x1="0" y1="0" x2=".65" y2="1"><stop stop-color="#71849d"/><stop offset=".42" stop-color="#526987"/><stop offset="1" stop-color="#465973"/></linearGradient><linearGradient id="surface-4C80D6" x1="0" y1="0" x2=".65" y2="1"><stop stop-color="#6c97dd"/><stop offset=".42" stop-color="#4C80D6"/><stop offset="1" stop-color="#416db6"/></linearGradient><linearGradient id="surface-3664AF" x1="0" y1="0" x2=".65" y2="1"><stop stop-color="#5a80bd"/><stop offset=".42" stop-color="#3664AF"/><stop offset="1" stop-color="#2e5595"/></linearGradient><linearGradient id="surface-328F96" x1="0" y1="0" x2=".65" y2="1"><stop stop-color="#57a3a9"/><stop offset=".42" stop-color="#328F96"/><stop offset="1" stop-color="#2b7a80"/></linearGradient><linearGradient id="surface-8D68C5" x1="0" y1="0" x2=".65" y2="1"><stop stop-color="#a283cf"/><stop offset=".42" stop-color="#8D68C5"/><stop offset="1" stop-color="#7858a7"/></linearGradient><linearGradient id="surface-BE5587" x1="0" y1="0" x2=".65" y2="1"><stop stop-color="#ca749d"/><stop offset=".42" stop-color="#BE5587"/><stop offset="1" stop-color="#a24873"/></linearGradient><linearGradient id="surface-80C6B5" x1="0" y1="0" x2=".65" y2="1"><stop stop-color="#97d0c2"/><stop offset=".42" stop-color="#80C6B5"/><stop offset="1" stop-color="#6da89a"/></linearGradient></defs><path d="M43 32H213V78H190Q187 53 153 53H144V189Q144 207 179 207V225H77V207Q112 207 112 189V53H103Q69 53 66 78H43Z" fill="url(#surface-BE5587)" stroke="url(#edge)" stroke-width="17" stroke-linejoin="round"/><path d="M43 32H213V78H190Q187 53 153 53H144V189Q144 207 179 207V225H77V207Q112 207 112 189V53H103Q69 53 66 78H43Z" fill="url(#surface-BE5587)" stroke="#17263F" stroke-width="10" stroke-linejoin="round"/><path d="M51 38H205V48H51Z" fill="#8D68C5"/></svg>
