<svg xmlns="http://www.w3.org/2000/svg" width="256" height="256" viewBox="0 0 256 256"><title>Personal website</title><defs><linearGradient id="edge" x1="0" y1="0" x2="0.8" y2="1"><stop stop-color="#CFDDEB"/><stop offset=".48" stop-color="#A9BBD0"/><stop offset="1" stop-color="#879FB9"/></linearGradient><linearGradient id="surface-17263F" x1="0" y1="0" x2=".65" y2="1"><stop stop-color="#414d62"/><stop offset=".42" stop-color="#17263F"/><stop offset="1" stop-color="#142036"/></linearGradient><linearGradient id="surface-A9BBD0" x1="0" y1="0" x2=".65" y2="1"><stop stop-color="#b8c7d8"/><stop offset=".42" stop-color="#A9BBD0"/><stop offset="1" stop-color="#909fb1"/></linearGradient><linearGradient id="surface-D0DFEF" x1="0" y1="0" x2=".65" y2="1"><stop stop-color="#d8e5f2"/><stop offset=".42" stop-color="#D0DFEF"/><stop offset="1" stop-color="#b1becb"/></linearGradient><linearGradient id="surface-526987" x1="0" y1="0" x2=".65" y2="1"><stop stop-color="#71849d"/><stop offset=".42" stop-color="#526987"/><stop offset="1" stop-color="#465973"/></linearGradient><linearGradient id="surface-4C80D6" x1="0" y1="0" x2=".65" y2="1"><stop stop-color="#6c97dd"/><stop offset=".42" stop-color="#4C80D6"/><stop offset="1" stop-color="#416db6"/></linearGradient><linearGradient id="surface-3664AF" x1="0" y1="0" x2=".65" y2="1"><stop stop-color="#5a80bd"/><stop offset=".42" stop-color="#3664AF"/><stop offset="1" stop-color="#2e5595"/></linearGradient><linearGradient id="surface-328F96" x1="0" y1="0" x2=".65" y2="1"><stop stop-color="#57a3a9"/><stop offset=".42" stop-color="#328F96"/><stop offset="1" stop-color="#2b7a80"/></linearGradient><linearGradient id="surface-8D68C5" x1="0" y1="0" x2=".65" y2="1"><stop stop-color="#a283cf"/><stop offset=".42" stop-color="#8D68C5"/><stop offset="1" stop-color="#7858a7"/></linearGradient><linearGradient id="surface-BE5587" x1="0" y1="0" x2=".65" y2="1"><stop stop-color="#ca749d"/><stop offset=".42" stop-color="#BE5587"/><stop offset="1" stop-color="#a24873"/></linearGradient><linearGradient id="surface-80C6B5" x1="0" y1="0" x2=".65" y2="1"><stop stop-color="#97d0c2"/><stop offset=".42" stop-color="#80C6B5"/><stop offset="1" stop-color="#6da89a"/></linearGradient></defs><path d="M46 34H210Q229 34 229 53V201Q229 220 210 220H46Q27 220 27 201V53Q27 34 46 34Z" fill="url(#surface-328F96)" stroke="url(#edge)" stroke-width="17" stroke-linejoin="round"/><path d="M46 34H210Q229 34 229 53V201Q229 220 210 220H46Q27 220 27 201V53Q27 34 46 34Z" fill="url(#surface-328F96)" stroke="#17263F" stroke-width="10" stroke-linejoin="round"/><path d="M47 40H210Q223 40 223 53V79H33V53Q33 40 47 40Z" fill="url(#surface-526987)"/><circle cx="52" cy="59" r="6" fill="#D0DFEF"/><circle cx="75" cy="59" r="6" fill="#D0DFEF"/><circle cx="98" cy="59" r="6" fill="#D0DFEF"/><path d="M88 102V188L110 168L129 203L149 192L129 158L164 157Z" fill="url(#surface-D0DFEF)" stroke="url(#edge)" stroke-width="15" stroke-linejoin="round"/><path d="M88 102V188L110 168L129 203L149 192L129 158L164 157Z" fill="url(#surface-D0DFEF)" stroke="#17263F" stroke-width="8" stroke-linejoin="round"/></svg>
