<?xml version="1.0" encoding="UTF-8"?>
<svg xmlns="http://www.w3.org/2000/svg" viewBox="0 0 64 64" fill="none">
    <defs>
        <radialGradient id="moonBody" cx="32%" cy="42%" r="72%">
            <stop offset="0%" stop-color="#f8fafc"/>
            <stop offset="55%" stop-color="#cbd5e1"/>
            <stop offset="100%" stop-color="#475569"/>
        </radialGradient>
        <radialGradient id="moonAura" cx="50%" cy="50%" r="50%">
            <stop offset="0%" stop-color="#dbeafe" stop-opacity="0.34"/>
            <stop offset="60%" stop-color="#93c5fd" stop-opacity="0.10"/>
            <stop offset="100%" stop-color="#93c5fd" stop-opacity="0"/>
        </radialGradient>
        <mask id="crescent">
            <rect width="64" height="64" fill="white"/>
            <circle cx="41" cy="24" r="17.5" fill="black"/>
        </mask>
    </defs>

    <circle cx="32" cy="32" r="30" fill="url(#moonAura)"/>

    <g fill="#e0f2fe">
        <path d="M52 9 L52.7 11.4 L55.1 12.1 L52.7 12.8 L52 15.2 L51.3 12.8 L48.9 12.1 L51.3 11.4 Z" opacity="0.88"/>
        <circle cx="49" cy="19" r="0.75" opacity="0.72"/>
        <circle cx="56.5" cy="16" r="0.55" opacity="0.6"/>
        <circle cx="45.5" cy="8" r="0.6" opacity="0.55"/>
        <circle cx="58" cy="24" r="0.5" opacity="0.55"/>
    </g>

    <circle cx="32" cy="32" r="20" fill="url(#moonBody)" mask="url(#crescent)"/>

    <circle cx="32" cy="32" r="20" fill="none" stroke="#1e293b" stroke-width="0.5" stroke-opacity="0.32" mask="url(#crescent)"/>

    <circle cx="41" cy="24" r="17.5" fill="none" stroke="#f8fafc" stroke-width="0.7" stroke-opacity="0.42" mask="url(#crescent)"/>

    <g fill="#64748b" fill-opacity="0.5" mask="url(#crescent)">
        <circle cx="22" cy="30" r="1.7"/>
        <circle cx="20" cy="39" r="1.3"/>
        <circle cx="27" cy="43" r="0.9"/>
        <circle cx="16.5" cy="33" r="0.7"/>
        <circle cx="24" cy="22" r="0.85"/>
        <circle cx="18" cy="26" r="0.55"/>
    </g>

    <ellipse cx="18" cy="22" rx="3.5" ry="1.6" fill="#ffffff" fill-opacity="0.32" transform="rotate(-30 18 22)" mask="url(#crescent)"/>
</svg>
