<?xml version="1.0" encoding="utf-8"?>
<!-- Generator: Adobe Illustrator 24.0.0, SVG Export Plug-In . SVG Version: 6.00 Build 0)  -->
<svg version="1.1" xmlns="http://www.w3.org/2000/svg" xmlns:xlink="http://www.w3.org/1999/xlink" x="0px" y="0px"
	 viewBox="0 0 256 256" enable-background="new 0 0 256 256" xml:space="preserve">
<g id="Layer_2" display="none">
	<rect x="-764" y="-2136" display="inline" fill="#FFFFFF" width="1786" height="5896"/>
</g>
<g id="Layer_1">
	<g>
		<path fill="#EFEFEF" d="M128.171,4.894c-32.279,0-63.102,29.318-63.102,29.318S95.892,63.53,128.171,63.53
			s63.102-29.318,63.102-29.318S160.451,4.894,128.171,4.894z"/>
		<circle fill="#FC5D3D" cx="128.172" cy="34.212" r="29.318"/>
		<path fill="#FFCBC2" d="M108.243,45.779c-0.715-1.181-0.337-2.718,0.844-3.434c1.182-0.715,2.719-0.337,3.434,0.844
			c5.845,9.657,19.179,11.251,27.134,3.296c0.977-0.977,2.559-0.976,3.535,0c0.977,0.977,0.977,2.56,0,3.536
			C132.975,60.236,115.801,58.256,108.243,45.779z M105.041,35.108c-0.252-6.19,2.035-12.209,6.531-16.706
			c0.977-0.976,2.559-0.976,3.536,0c0.976,0.976,0.976,2.559,0,3.536c-3.49,3.49-5.264,8.16-5.07,12.967
			c0.056,1.379-1.017,2.543-2.397,2.599C106.271,37.564,105.097,36.495,105.041,35.108z"/>
		<circle fill="#4C4945" cx="128.172" cy="34.212" r="10.734"/>
		<path fill="#FFCBC2" d="M135.575,16.439c-3.888,0-7.039,3.152-7.039,7.039c0,3.888,3.152,7.039,7.039,7.039
			c3.888,0,7.039-3.152,7.039-7.039C142.615,19.59,139.463,16.439,135.575,16.439z"/>
		<path fill="#72C1E8" d="M195.957,148.777c0.023,9.133-1.811,18.391-5.675,27.214c-27.789,63.623-122.875,48.854-129.56-20.551
			c-1.546-15.373,2.279-31.761,12.027-45.577c13.122-18.617,33.786-28.557,54.783-28.777v64.87c0,1.558,1.263,2.821,2.821,2.821
			H195.957z"/>
		<path fill="#13BF6D" d="M126.934,182.483l-6.511,13.698c-2.049,4.327-8.113,4.607-10.557,0.489l-20.645-34.728
			c-1.924-3.245-5.356-5.304-9.121-5.502l-19.376-0.998c-1.552-15.37,2.278-31.766,12.023-45.576
			c11.05,0,25.611-1.313,43.225,11.898c2.86,2.143,3.297,6.261,0.957,8.955l-14.665,16.891c-2.122,2.434-1.279,6.22,1.664,7.54
			l15.424,6.864C127.184,165.498,130.606,174.744,126.934,182.483z"/>
		<path fill="#76FFBB" d="M71.736,158.509c-1.227,0-2.297-0.903-2.473-2.153c-0.072-0.509-0.124-1.01-0.175-1.525
			c-0.191-1.894-0.29-3.819-0.296-5.721c-0.004-1.381,1.112-2.503,2.493-2.507c0.002,0,0.005,0,0.007,0
			c1.377,0,2.496,1.114,2.5,2.493c0.005,1.74,0.096,3.502,0.27,5.235c0.045,0.45,0.09,0.887,0.152,1.33
			c0.192,1.367-0.76,2.631-2.128,2.823C71.969,158.501,71.852,158.509,71.736,158.509z M71.719,141.615
			c-1.359-0.243-2.264-1.541-2.021-2.9c2.031-11.374,7.364-21.84,15.421-30.269c0.954-0.999,2.536-1.034,3.535-0.08
			c0.998,0.954,1.034,2.537,0.08,3.535c-7.376,7.715-12.256,17.291-14.114,27.693C74.375,140.965,73.062,141.858,71.719,141.615z"/>
		<path fill="#13BF6D" d="M195.957,148.777c0.023,9.133-1.811,18.391-5.675,27.214c-21.168-3.231-35.436-15.438-40.172-27.214
			H195.957z"/>
		<path fill="#C5E5FE" d="M69.189,155.786c-0.152-1.373,0.837-2.608,2.209-2.761c1.376-0.154,2.608,0.837,2.761,2.209
			c5.125,46.186,59.308,61.157,89.205,34.628c1.032-0.917,2.613-0.822,3.529,0.21s0.822,2.613-0.211,3.529
			C133.808,222.776,74.749,205.886,69.189,155.786z M171.861,186.955c-0.54,0-1.084-0.174-1.542-0.534
			c-1.086-0.853-1.275-2.424-0.423-3.51c0.354-0.451,0.702-0.908,1.04-1.369c0.818-1.113,2.381-1.353,3.495-0.536
			c1.113,0.817,1.353,2.381,0.536,3.495c-0.371,0.504-0.75,1.004-1.138,1.498C173.336,186.627,172.602,186.955,171.861,186.955z"/>
		<path fill="#C5E5FE" d="M85.196,111.986c-0.999-0.954-1.035-2.536-0.081-3.534c4.709-4.931,10.172-8.974,16.237-12.017
			c1.235-0.619,2.736-0.121,3.355,1.113s0.121,2.736-1.113,3.355c-5.55,2.785-10.551,6.486-14.864,11.001
			C87.778,112.904,86.193,112.94,85.196,111.986z"/>
		<path fill="#878787" d="M195.957,148.777h-65.604c-1.558,0-2.821-1.263-2.821-2.821v-64.87
			C164.927,80.686,195.869,110.948,195.957,148.777z"/>
		<path fill="#F0C020" d="M177.177,148.777h-46.823c-1.558,0-2.821-1.263-2.821-2.821V99.133
			C154.95,99.133,177.177,121.36,177.177,148.777z"/>
		<path fill="#FC5D3D" d="M154.611,148.777h-24.258c-1.558,0-2.821-1.263-2.821-2.821v-24.258
			C142.488,121.698,154.611,133.821,154.611,148.777z"/>
		<g>
			<path d="M83.033,23.473c1.16-0.76,1.47-2.31,0.72-3.47c-0.74-1.11-2.35-1.44-3.47-0.71c-1.15,0.76-1.47,2.31-0.71,3.47
				C80.35,23.92,81.894,24.223,83.033,23.473z"/>
			<path d="M128.17,47.443c7.296,0,13.232-5.936,13.232-13.232c0-1.006-0.122-1.988-0.339-2.943
				c2.447-1.729,4.052-4.573,4.052-7.791c0-5.26-4.279-9.539-9.539-9.539c-4.445,0-8.179,3.061-9.233,7.182
				c-6.432,0.895-11.405,6.416-11.405,13.091C114.938,41.507,120.874,47.443,128.17,47.443z M135.576,18.938
				c2.503,0,4.539,2.036,4.539,4.539s-2.036,4.54-4.539,4.54s-4.539-2.037-4.539-4.54S133.073,18.938,135.576,18.938z
				 M126.429,26.168c1.213,4.116,5.163,7.166,9.873,6.812c0.06,0.403,0.1,0.812,0.1,1.23c0,4.539-3.692,8.232-8.232,8.232
				c-4.539,0-8.232-3.693-8.232-8.232C119.938,30.27,122.724,26.97,126.429,26.168z"/>
			<path d="M94.123,170.183c-1.19,0.7-1.58,2.24-0.87,3.42c0.688,1.187,2.25,1.588,3.42,0.88c1.166-0.684,1.591-2.221,0.87-3.43
				C96.873,169.913,95.263,169.503,94.123,170.183z"/>
			<path d="M171.023,93.153c-1.06-0.82-2.689-0.6-3.5,0.46c-0.84,1.1-0.63,2.67,0.46,3.51c0,0,0,0,0.01,0
				c15.351,11.8,24.61,29.71,25.41,49.15h-13.789c-1.272-26.765-22.815-48.307-49.581-49.577V83.603c7.28,0.2,14.4,1.6,21.181,4.17
				c1.26,0.47,2.75-0.21,3.22-1.46c0.49-1.29-0.16-2.73-1.45-3.22c-48.545-18.399-99.964,21.02-94.75,72.6
				c5.401,56.144,66.863,78.075,107.379,52.99C205.971,183.68,210.545,123.501,171.023,93.153z M130.033,101.698
				c24.007,1.262,43.315,20.569,44.579,44.575h-17.61c-1.176-14.121-12.398-25.749-26.969-26.959V101.698z M130.033,124.323
				c11.54,1.19,20.761,10.41,21.95,21.95c-12.103,0-9.513,0-21.63,0c-0.209,0-0.32-0.187-0.32-0.32
				C130.033,138.275,130.033,131.986,130.033,124.323z M63.562,158.086l16.412,0.847c2.95,0.16,5.6,1.76,7.1,4.28
				c0.951,1.615,1.47,3.02,3.22,3.02c0.44,0,0.88-0.12,1.27-0.35c1.19-0.7,1.58-2.24,0.87-3.43l-1.06-1.79
				c-2.36-3.97-6.52-6.48-11.14-6.72l-17.183-0.887c-0.978-14.738,3.012-28.872,11.028-40.699
				c11.856-0.097,24.428-0.506,40.395,11.406c0.92,0.69,1.46,1.76,1.46,2.93c0,0.88-0.31,1.71-0.89,2.39l-14.67,16.89
				c-3.195,3.636-1.976,9.429,2.53,11.46l15.43,6.86c4.6,2.05,7.57,6.62,7.58,11.66c0,1.89-0.42,3.73-1.24,5.46l-6.51,13.69
				c-0.6,1.25-1.75,1.97-3.15,1.99c-0.91-0.01-2.17-0.31-3-1.7l-9.36-15.75c-0.67-1.13-2.28-1.55-3.42-0.87
				c-1.19,0.71-1.58,2.25-0.87,3.43l9.35,15.74c3.445,5.842,12.076,5.43,14.97-0.69l6.51-13.7c1.141-2.4,1.71-4.96,1.71-7.6
				c0.011-7-4.13-13.37-10.53-16.22l-15.43-6.87c-0.84-0.38-1.35-1.17-1.36-2.11c0-0.57,0.19-1.06,0.56-1.5l14.67-16.9
				c1.37-1.57,2.12-3.58,2.12-5.66c0.01-2.71-1.29-5.3-3.46-6.93c-6.76-5.09-13.64-8.51-21.03-10.45
				c-6.46-1.694-12.344-2.016-18.589-1.986c11.69-14.188,28.611-22.756,47.178-23.664c0,2.881,0,16.812,0,62.293
				c0,2.934,2.387,5.32,5.32,5.32h18.049c2.453,6.087,14.059,21.79,38.234,26.606C158.564,234.994,72.066,221.355,63.562,158.086z
				 M188.726,173.195c-17.106-3.11-29.029-12.305-34.707-21.918c22.632,0,32.563-0.003,39.394-0.003
				C193.136,158.82,191.553,166.184,188.726,173.195z"/>
			<path d="M159.933,91.833c1.236,0.683,2.739,0.231,3.4-0.97c0.673-1.181,0.252-2.694-0.95-3.39c-0.01,0-0.01,0-0.01-0.01
				c-1.17-0.64-2.761-0.19-3.4,0.97C158.274,89.683,158.758,91.185,159.933,91.833z"/>
			<path d="M230.327,146.626h-7.692c-0.774-40.133-26.64-75.088-64.267-87.711c13.656-6.087,27.149-15.848,34.626-22.893
				c1.077-1.034,1.004-2.676,0-3.62l-0.01-0.02c-15.148-14.23-41.247-29.956-64.81-29.99c-12.1,0.01-25.28,3.92-39.17,11.61
				c-1.2,0.67-1.64,2.2-0.97,3.4c0.65,1.16,2.23,1.62,3.4,0.97c4.773-2.651,9.513-4.837,14.152-6.545
				c-5.702,5.753-9.231,13.663-9.231,22.384c0,8.723,3.531,16.636,9.236,22.39c-13.072-4.834-26.347-13.354-36.778-22.389
				c1-0.833,2.69-2.354,6.21-5.04c1.09-0.84,1.3-2.41,0.46-3.51c-0.81-1.06-2.43-1.28-3.5-0.46c-4.084,3.11-7.77,6.329-8.64,7.2
				c-0.991,0.932-1.064,2.598,0,3.62l0.02,0.01c7.774,7.303,21.165,16.885,34.615,22.883
				c-37.518,12.587-63.343,47.376-64.259,87.363h-8.046c-1.381,0-2.5,1.119-2.5,2.5s1.119,2.5,2.5,2.5h8.045
				c1.462,49.868,41.745,90.164,91.608,91.647v8.353c0,1.381,1.119,2.5,2.5,2.5s2.5-1.119,2.5-2.5v-8.333
				c50.066-1.125,90.642-41.381,92.288-91.319h7.712c1.381,0,2.5-1.119,2.5-2.5S231.708,146.626,230.327,146.626z M187.533,34.213
				c-3.752,3.285-18.656,15.703-36.817,22.428c5.728-5.757,9.274-13.686,9.274-22.429c0-8.721-3.529-16.632-9.231-22.385
				C163.929,16.698,177.358,25.36,187.533,34.213z M101.354,34.212c0-14.788,12.03-26.818,26.817-26.818
				c14.761,0,26.818,12.007,26.818,26.818c0,14.787-12.03,26.817-26.818,26.817C113.385,61.029,101.354,48.999,101.354,34.212z
				 M209.327,151.626h8.285c-1.643,47.182-39.976,85.196-87.285,86.319v-7.667c0-1.381-1.119-2.5-2.5-2.5s-2.5,1.119-2.5,2.5v7.644
				c-47.106-1.48-85.146-39.533-86.605-86.644h7.952c1.381,0,2.5-1.119,2.5-2.5s-1.119-2.5-2.5-2.5H38.72
				c0.965-39.892,28.106-74.302,66.776-84.387c7.865,2.735,15.446,4.131,22.678,4.141c7.227-0.01,14.808-1.406,22.675-4.142
				c38.784,10.114,65.971,44.695,66.786,84.735h-8.308c-1.381,0-2.5,1.119-2.5,2.5S207.946,151.626,209.327,151.626z"/>
		</g>
	</g>
</g>
</svg>
