<?xml version="1.0" encoding="UTF-8"?>
<svg xmlns="http://www.w3.org/2000/svg" viewBox="0 0 64 64" fill="none">
    <defs>
        <linearGradient id="paper" x1="0%" y1="0%" x2="0%" y2="100%">
            <stop offset="0%" stop-color="#0f172a"/>
            <stop offset="100%" stop-color="#334155"/>
        </linearGradient>
        <linearGradient id="fold" x1="0%" y1="0%" x2="100%" y2="100%">
            <stop offset="0%" stop-color="#475569"/>
            <stop offset="100%" stop-color="#94a3b8"/>
        </linearGradient>
        <linearGradient id="accent" x1="0%" y1="0%" x2="100%" y2="100%">
            <stop offset="0%" stop-color="#fbbf24"/>
            <stop offset="100%" stop-color="#d97706"/>
        </linearGradient>
        <radialGradient id="aura" cx="50%" cy="55%" r="55%">
            <stop offset="0%" stop-color="#fbbf24" stop-opacity="0.18"/>
            <stop offset="100%" stop-color="#fbbf24" stop-opacity="0"/>
        </radialGradient>
    </defs>

    <circle cx="32" cy="32" r="30" fill="url(#aura)"/>

    <path d="M14 8 L40 8 L52 20 L52 54 Q52 56 50 56 L16 56 Q14 56 14 54 Z"
          fill="url(#paper)" stroke="#0f172a" stroke-width="0.8" stroke-opacity="0.72"/>

    <path d="M40 8 L52 20 L40 20 Z" fill="url(#fold)" stroke="#0f172a" stroke-width="0.7" stroke-opacity="0.68"/>

    <path d="M40 8 L40 20 L52 20" fill="none" stroke="#cbd5e1" stroke-width="0.45" stroke-opacity="0.55"/>

    <rect x="18" y="13.5" width="14" height="2.6" rx="1.2" fill="url(#accent)"/>

    <circle cx="22" cy="26" r="3.2" fill="url(#accent)" fill-opacity="0.96"/>
    <circle cx="22" cy="26" r="3.2" fill="none" stroke="#fed7aa" stroke-width="0.4" stroke-opacity="0.38"/>

    <rect x="28" y="24" width="15" height="1.9" rx="0.7" fill="#e2e8f0" opacity="0.88"/>
    <rect x="28" y="27.4" width="11" height="1.3" rx="0.5" fill="#cbd5e1" opacity="0.78"/>

    <g fill="#e2e8f0" opacity="0.7">
        <rect x="18" y="35" width="28" height="1.5" rx="0.6"/>
        <rect x="18" y="39.6" width="24" height="1.5" rx="0.6"/>
        <rect x="18" y="44.2" width="26" height="1.5" rx="0.6"/>
        <rect x="18" y="48.8" width="20" height="1.5" rx="0.6"/>
    </g>

    <path d="M14 8 L14 12 Q 14 8 17 8 Z" fill="#e2e8f0" fill-opacity="0.28"/>
</svg>
